<svg width="27" height="34" viewBox="0 0 27 34" fill="none" xmlns="http://www.w3.org/2000/svg">
<path fill-rule="evenodd" clip-rule="evenodd" d="M13.125 33.5232C14.8486 33.5232 16.5553 33.0896 18.1477 32.2473C19.7401 31.4049 21.187 30.1703 22.4058 28.6138C23.6245 27.0574 24.5913 25.2096 25.2509 23.176C25.9105 21.1424 26.25 18.9628 26.25 16.7616C26.25 14.5604 25.9105 12.3808 25.2509 10.3472C24.5913 8.3136 23.6245 6.46582 22.4058 4.90936C21.187 3.3529 19.7401 2.11825 18.1477 1.2759C16.5553 0.433551 14.8486 -3.27999e-08 13.125 0C9.64403 6.62424e-08 6.30564 1.76595 3.84422 4.90936C1.38281 8.05277 0 12.3161 0 16.7616C0 21.207 1.38281 25.4704 3.84422 28.6138C6.30564 31.7572 9.64403 33.5232 13.125 33.5232ZM12.7867 23.5407L20.0783 12.3663L17.8383 9.98246L11.5675 19.5906L8.32271 15.4449L6.26063 18.0783L10.6356 23.6655L11.7644 25.107L12.7867 23.5407Z" fill="black"/>
</svg>
