<svg width="31" height="31" viewBox="0 0 31 31" fill="none" xmlns="http://www.w3.org/2000/svg">
<path d="M22.0676 22.8755C22.7348 22.8755 23.3747 23.1406 23.8465 23.6124C24.3183 24.0842 24.5833 24.7241 24.5833 25.3913C24.5833 26.0586 24.3183 26.6985 23.8465 27.1703C23.3747 27.6421 22.7348 27.9071 22.0676 27.9071C21.4003 27.9071 20.7604 27.6421 20.2886 27.1703C19.8168 26.6985 19.5518 26.0586 19.5518 25.3913C19.5518 23.9951 20.6713 22.8755 22.0676 22.8755ZM1.94116 2.74915H6.05449L7.23692 5.26494H25.8412C26.1749 5.26494 26.4948 5.39747 26.7307 5.63337C26.9666 5.86928 27.0991 6.18923 27.0991 6.52284C27.0991 6.73669 27.0363 6.95053 26.9482 7.15179L22.4449 15.2904C22.0172 16.0577 21.187 16.586 20.2436 16.586H10.8722L9.74014 18.6364L9.7024 18.7874C9.7024 18.8708 9.73553 18.9508 9.79451 19.0097C9.85348 19.0687 9.93347 19.1018 10.0169 19.1018H24.5833V21.6176H9.48856C8.82133 21.6176 8.18142 21.3526 7.70962 20.8808C7.23782 20.409 6.97276 19.7691 6.97276 19.1018C6.97276 18.6616 7.08597 18.2465 7.27465 17.8943L8.9854 14.8124L4.45696 5.26494H1.94116V2.74915ZM9.48856 22.8755C10.1558 22.8755 10.7957 23.1406 11.2675 23.6124C11.7393 24.0842 12.0044 24.7241 12.0044 25.3913C12.0044 26.0586 11.7393 26.6985 11.2675 27.1703C10.7957 27.6421 10.1558 27.9071 9.48856 27.9071C8.82133 27.9071 8.18142 27.6421 7.70962 27.1703C7.23782 26.6985 6.97276 26.0586 6.97276 25.3913C6.97276 23.9951 8.09229 22.8755 9.48856 22.8755ZM20.8097 14.0702L24.3066 7.78074H8.40676L11.3754 14.0702H20.8097Z" fill="black"/>
</svg>
